<svg xmlns="http://www.w3.org/2000/svg" xmlns:xlinks="http://www.w3.org/1999/xlink" style="display:none">

<!--Logo 1 Flor Cosmetica-->
<symbol id="logoFP"  viewBox="0 0 1131.000000 1600.000000">
    <g transform="translate(0.000000,1600.000000) scale(0.100000,-0.100000)"
    fill="currentColor" stroke="none">
    <path d="M2430 12346 l0 -33 108 -5 c90 -4 115 -8 153 -29 57 -31 95 -104 109
    -209 13 -105 13 -4645 0 -4765 -32 -279 -107 -376 -307 -392 l-63 -6 0 -33 0
    -34 885 0 885 0 0 35 0 35 -58 0 c-132 0 -248 40 -316 107 -47 48 -100 157
    -123 253 -15 68 -17 178 -20 1209 l-4 1134 1001 -8 1000 -7 0 42 0 43 -1000
    -8 -1000 -7 0 1322 0 1322 678 -5 c555 -3 699 -7 797 -21 145 -20 348 -69 424
    -102 280 -124 438 -350 496 -710 14 -86 35 -322 35 -391 0 -31 2 -33 35 -33
    l35 0 0 665 0 665 -1875 0 -1875 0 0 -34z"/>
    <path d="M4530 9136 l0 -46 98 0 c116 0 262 -22 352 -54 179 -62 244 -160 261
    -391 4 -66 9 -578 9 -1137 l0 -1018 470 0 470 0 0 1296 0 1296 308 -5 c424 -7
    605 -38 817 -143 386 -189 535 -562 535 -1344 0 -207 -19 -489 -39 -598 -36
    -186 -95 -349 -167 -464 l-24 -38 404 0 403 0 76 80 c42 43 96 106 121 139 93
    127 182 336 222 525 36 166 35 545 -1 716 -91 435 -347 754 -761 950 -280 133
    -588 206 -1072 256 -132 14 -340 17 -1319 21 l-1163 5 0 -46z"/>
    <path d="M2452 5948 c3 -170 3 -173 25 -176 21 -3 22 1 25 68 l3 72 85 1 c78
    2 85 4 85 22 0 18 -8 20 -87 23 l-88 3 0 59 0 60 100 0 c93 0 100 1 100 20 0
    19 -7 20 -125 20 l-125 0 2 -172z"/>
    <path d="M2770 5945 l0 -175 115 0 115 0 0 25 c0 25 -1 25 -90 25 l-90 0 0
    150 0 150 -25 0 -25 0 0 -175z"/>
    <path d="M3115 6097 c-79 -44 -107 -152 -62 -237 59 -111 234 -121 311 -17 14
    19 21 47 24 91 5 79 -20 132 -78 165 -52 29 -141 29 -195 -2z m171 -36 c35
    -21 64 -75 64 -118 0 -34 -31 -87 -62 -106 -42 -27 -84 -30 -132 -9 -53 24
    -76 62 -76 126 0 48 33 100 74 116 37 15 100 11 132 -9z"/>
    <path d="M3472 5948 c3 -165 4 -173 23 -173 17 0 20 8 23 53 l3 52 54 0 54 0
    38 -55 c27 -39 45 -55 61 -55 12 0 22 2 22 5 0 3 -16 29 -35 58 l-36 52 24 20
    c69 57 63 151 -13 194 -31 17 -54 21 -129 21 l-91 0 2 -172z m209 103 c11 -13
    19 -36 19 -51 0 -15 -8 -38 -19 -51 -16 -19 -30 -24 -90 -27 l-71 -4 0 82 0
    82 71 -4 c60 -3 74 -8 90 -27z"/>
    <path d="M3830 5945 l0 -175 125 0 125 0 0 25 0 25 -100 0 -100 0 0 55 0 55
    85 0 c78 0 85 2 85 20 0 18 -7 20 -85 20 l-85 0 0 55 0 55 94 0 c85 0 94 2 99
    20 5 19 0 20 -119 20 l-124 0 0 -175z"/>
    <path d="M4170 6100 c0 -11 -1 -81 -1 -155 0 -74 1 -144 1 -155 0 -13 7 -20
    20 -20 18 0 20 8 22 130 l3 130 105 -130 c62 -77 112 -130 123 -130 16 0 17
    15 17 175 l0 175 -25 0 -24 0 -3 -124 -3 -123 -100 123 c-97 120 -135 149
    -135 104z"/>
    <path d="M4635 6104 c-67 -35 -95 -82 -95 -160 0 -97 79 -174 178 -174 75 0
    149 44 118 69 -12 10 -20 9 -38 -2 -42 -27 -84 -30 -132 -9 -53 24 -76 62 -76
    128 0 41 5 51 39 85 34 34 44 39 85 39 47 0 85 -13 98 -34 9 -13 39 24 31 37
    -22 35 -156 49 -208 21z"/>
    <path d="M4930 5945 c0 -168 1 -175 20 -175 19 0 20 7 20 175 0 168 -1 175
    -20 175 -19 0 -20 -7 -20 -175z"/>
    <path d="M5162 6073 c-12 -27 -46 -103 -77 -170 -30 -67 -55 -124 -55 -127 0
    -3 10 -6 23 -6 16 0 29 12 47 48 14 26 28 46 33 45 4 -2 43 -3 87 -3 l80 0 22
    -45 c17 -34 28 -45 45 -45 13 0 23 1 23 3 0 2 -30 68 -66 148 -36 79 -71 156
    -77 172 -8 20 -18 27 -37 27 -22 0 -30 -8 -48 -47z m83 -80 c15 -38 29 -74 32
    -80 4 -10 -13 -13 -66 -13 -39 0 -71 3 -71 8 0 14 64 152 71 152 4 0 19 -30
    34 -67z"/>
    <path d="M5572 5948 c3 -171 3 -173 26 -176 21 -3 22 0 22 52 l0 56 65 0 c115
    0 165 37 165 120 0 88 -50 120 -189 120 l-91 0 2 -172z m202 111 c20 -16 26
    -29 26 -60 0 -34 -5 -42 -32 -59 -23 -14 -51 -20 -90 -20 l-58 0 0 80 0 80 64
    0 c49 0 69 -5 90 -21z"/>
    <path d="M5970 6023 c-24 -54 -55 -123 -70 -153 -43 -87 -46 -100 -18 -100 18
    0 29 10 46 45 l22 45 90 0 90 0 22 -45 c17 -34 28 -45 45 -45 13 0 23 1 23 3
    0 2 -30 68 -66 148 -36 79 -71 156 -77 172 -8 20 -18 27 -38 27 -24 0 -31 -9
    -69 -97z m107 -35 c15 -40 30 -76 31 -80 2 -5 -28 -8 -67 -8 -39 0 -71 3 -71
    8 0 15 64 152 71 152 4 0 20 -33 36 -72z"/>
    <path d="M6280 5945 c0 -168 1 -175 20 -175 18 0 20 7 20 55 l0 55 54 0 c57 0
    62 -4 119 -84 17 -25 57 -36 57 -16 0 6 -15 31 -34 57 l-34 47 34 31 c30 28
    34 39 34 81 0 92 -47 124 -185 124 l-85 0 0 -175z m194 114 c20 -16 26 -29 26
    -58 0 -56 -26 -75 -111 -79 l-69 -4 0 81 0 81 64 0 c49 0 69 -5 90 -21z"/>
    <path d="M6639 6113 c0 -7 0 -311 1 -335 0 -5 9 -8 20 -8 18 0 20 7 20 55 l0
    55 55 0 54 0 41 -55 c25 -34 48 -55 60 -55 27 0 25 10 -14 66 l-33 49 30 25
    c24 21 30 35 34 75 8 99 -40 135 -179 135 -49 0 -88 -3 -89 -7z m202 -62 c35
    -36 37 -61 5 -98 -21 -24 -32 -28 -95 -31 l-71 -4 0 81 0 81 66 0 c59 0 68 -3
    95 -29z"/>
    <path d="M7069 6053 c-60 -131 -119 -266 -119 -274 0 -5 9 -9 20 -9 14 0 27
    14 43 48 12 26 28 47 35 46 6 -1 48 -2 91 -2 l79 -2 18 -45 c13 -36 22 -45 40
    -45 13 0 24 4 24 10 0 5 -34 82 -75 172 -65 142 -77 163 -99 166 -22 3 -29 -5
    -57 -65z m59 -151 c-39 -2 -72 -1 -74 1 -2 2 12 39 33 83 l36 79 38 -80 38
    -80 -71 -3z"/>
    <path d="M7290 6117 c0 -7 50 -125 98 -232 42 -93 54 -110 74 -113 20 -2 27 4
    41 35 8 21 41 95 71 164 31 70 56 132 56 139 0 6 -10 10 -22 8 -18 -2 -33 -29
    -82 -141 -33 -75 -63 -134 -66 -130 -4 5 -17 33 -30 63 -70 170 -92 210 -116
    210 -13 0 -24 -1 -24 -3z"/>
    <path d="M7682 5948 c3 -171 3 -173 26 -176 l22 -3 0 175 0 176 -25 0 -25 0 2
    -172z"/>
    <path d="M7897 6099 c-94 -49 -114 -190 -38 -273 34 -37 79 -56 133 -56 50 0
    128 33 128 53 0 25 -26 27 -69 5 -53 -26 -100 -18 -148 25 -64 59 -54 162 20
    207 41 25 103 25 143 1 23 -14 35 -16 43 -8 17 17 13 26 -21 47 -45 27 -139
    27 -191 -1z"/>
    <path d="M8192 5948 c3 -171 3 -173 26 -176 l22 -3 0 175 0 176 -25 0 -25 0 2
    -172z"/>
    <path d="M8350 5945 c0 -168 1 -175 20 -175 19 0 20 7 20 125 0 69 4 125 9
    125 5 0 49 -51 99 -113 104 -130 116 -141 137 -133 13 4 15 33 15 176 l0 170
    -25 0 -25 0 0 -125 c0 -69 -3 -125 -7 -124 -5 0 -26 24 -48 53 -97 129 -157
    196 -175 196 -19 0 -20 -8 -20 -175z"/>
    <path d="M8752 5948 c3 -165 4 -173 23 -173 19 0 20 7 22 173 l2 172 -25 0
    -24 0 2 -172z"/>
    <path d="M3731 5540 c-16 -14 -19 -20 -8 -20 8 0 25 9 38 20 17 13 19 19 9 19
    -8 0 -26 -9 -39 -19z"/>
    <path d="M2470 5360 l0 -130 90 0 c53 0 90 4 90 10 0 6 -32 10 -75 10 l-75 0
    0 50 0 50 70 0 c40 0 70 4 70 10 0 6 -30 10 -70 10 l-70 0 0 50 0 50 75 0 c43
    0 75 4 75 10 0 6 -37 10 -90 10 l-90 0 0 -130z"/>
    <path d="M2910 5483 c-49 -18 -66 -75 -32 -106 10 -9 34 -20 53 -23 58 -11 89
    -32 89 -59 0 -43 -75 -61 -132 -31 -23 12 -28 13 -28 1 0 -19 66 -38 112 -32
    98 13 107 99 13 127 -97 28 -115 43 -95 80 13 24 60 34 104 21 45 -12 57 3 14
    18 -33 12 -73 13 -98 4z"/>
    <path d="M3220 5481 c0 -6 21 -11 48 -13 l47 -3 3 -117 c4 -157 22 -155 22 2
    l0 120 45 0 c25 0 45 5 45 10 0 6 -42 10 -105 10 -59 0 -105 -4 -105 -9z"/>
    <path d="M3640 5360 l0 -130 90 0 c110 0 121 18 13 22 l-77 3 1 30 c2 69 -2
    65 68 65 37 0 65 4 65 10 0 6 -28 10 -65 10 -45 0 -65 4 -66 13 -1 6 -2 28 -2
    47 l-2 35 78 3 c108 4 97 22 -13 22 l-90 0 0 -130z"/>
    <path d="M4000 5480 c0 -5 23 -10 50 -10 l50 0 0 -120 c0 -157 18 -159 22 -2
    l3 117 48 3 c26 2 47 7 47 13 0 5 -48 9 -110 9 -67 0 -110 -4 -110 -10z"/>
    <path d="M4420 5360 c0 -80 4 -130 10 -130 6 0 10 50 10 130 0 80 -4 130 -10
    130 -6 0 -10 -50 -10 -130z"/>
    <path d="M4734 5473 c-41 -20 -64 -61 -64 -113 0 -99 88 -154 189 -119 17 6
    31 17 31 25 0 18 -10 17 -34 -1 -42 -32 -115 -13 -146 37 -58 95 30 192 138
    155 30 -10 42 -11 39 -4 -11 36 -100 47 -153 20z"/>
    <path d="M5171 5458 c-8 -18 -34 -75 -58 -127 -23 -52 -43 -96 -43 -97 0 -2 6
    -4 14 -4 8 0 20 16 27 35 l13 35 77 0 77 0 12 -35 c6 -19 18 -35 26 -35 8 0
    14 2 14 4 0 2 -19 46 -43 98 -24 51 -49 108 -56 126 -8 18 -21 32 -30 32 -9 0
    -22 -15 -30 -32z m89 -134 c0 -2 -27 -4 -60 -4 -34 0 -60 4 -60 10 0 6 14 38
    31 72 l31 62 29 -68 c16 -37 29 -70 29 -72z"/>
    <path d="M5798 5378 c-3 -121 -1 -148 13 -148 5 0 9 59 9 130 0 74 -4 130 -9
    130 -6 0 -11 -51 -13 -112z"/>
    <path d="M6070 5360 c0 -80 4 -130 10 -130 6 0 10 42 10 106 l0 106 83 -103
    c45 -57 88 -105 95 -107 9 -3 12 27 12 127 0 81 -4 131 -10 131 -6 0 -10 -43
    -10 -107 l-1 -108 -30 35 c-17 19 -49 59 -72 89 -54 73 -70 91 -79 91 -5 0 -8
    -58 -8 -130z"/>
    <path d="M6480 5481 c0 -6 21 -11 48 -13 l47 -3 3 -117 c4 -157 22 -155 22 2
    l0 120 45 0 c25 0 45 5 45 10 0 6 -42 10 -105 10 -59 0 -105 -4 -105 -9z"/>
    <path d="M6900 5360 l0 -130 90 0 c53 0 90 4 90 10 0 6 -33 10 -80 10 l-80 0
    0 50 0 50 70 0 c90 0 92 18 3 22 l-68 3 0 45 0 45 78 3 c108 4 97 22 -13 22
    l-90 0 0 -130z"/>
    <path d="M7349 5470 c-91 -48 -87 -187 6 -226 42 -17 88 -18 132 -2 31 11 33
    15 33 59 0 26 -4 51 -10 54 -6 4 -10 -11 -10 -39 0 -53 -16 -66 -80 -66 -34 0
    -48 6 -76 34 -46 46 -48 101 -5 148 26 29 34 32 84 32 30 0 62 -5 70 -12 11
    -9 17 -10 22 -2 9 14 -55 40 -97 40 -18 -1 -49 -9 -69 -20z"/>
    <path d="M7755 5478 c-11 -29 0 -241 13 -246 8 -2 12 9 12 36 l0 40 46 4 c45
    3 47 2 76 -39 16 -24 36 -43 44 -43 11 0 7 11 -15 43 l-30 44 27 20 c21 16 27
    28 27 61 0 65 -28 86 -120 90 -58 3 -76 1 -80 -10z m140 -18 c31 -12 46 -46
    33 -80 -13 -34 -25 -40 -90 -40 l-58 0 0 65 0 65 44 0 c25 0 56 -4 71 -10z"/>
    <path d="M8250 5478 c0 -7 -25 -64 -55 -127 -30 -62 -55 -115 -55 -117 0 -2 6
    -4 13 -4 7 0 21 16 30 35 l17 35 73 0 73 0 17 -35 c9 -19 21 -35 27 -35 13 0
    15 -5 -29 96 -62 144 -73 164 -93 164 -10 0 -18 -6 -18 -12z m80 -149 c0 -5
    -27 -9 -60 -9 -33 0 -60 2 -60 4 0 2 14 34 31 72 l31 69 29 -64 c16 -35 29
    -68 29 -72z"/>
    <path d="M8610 5360 l0 -130 91 0 c57 0 88 4 84 10 -3 6 -37 10 -76 10 l-69 0
    0 120 c0 100 -2 120 -15 120 -13 0 -15 -21 -15 -130z"/>
    <path d="M5257 4903 c-4 -3 -7 -151 -7 -327 -1 -516 -16 -625 -101 -725 -82
    -96 -293 -160 -526 -161 l-93 0 0 -45 0 -45 1320 0 1320 0 0 45 0 45 -128 0
    c-239 0 -496 43 -629 106 -69 33 -124 87 -158 155 -50 99 -56 153 -62 572 l-5
    387 -463 0 c-254 0 -465 -3 -468 -7z"/></g>
</symbol>

<!--Logo 2 Flor Cosmetica-->
<symbol id="logoFP2" viewBox="0 0 500.000000 500.000000">
    <g transform="translate(0.000000,500.000000) scale(0.100000,-0.100000)"
    fill="currentColor" stroke="none">
    <path d="M2310 4914 c-170 -20 -220 -28 -320 -50 -192 -42 -409 -120 -580
    -207 -85 -44 -175 -93 -200 -110 -25 -17 -73 -50 -107 -73 -136 -92 -345 -288
    -476 -444 -267 -319 -454 -749 -529 -1215 -17 -107 -17 -502 0 -620 78 -540
    318 -1027 691 -1405 259 -261 595 -468 946 -583 276 -91 496 -127 765 -127
    269 0 489 36 765 127 425 139 810 402 1096 748 76 93 81 99 167 226 89 130
    204 370 261 542 179 541 174 1059 -16 1597 -202 572 -631 1055 -1185 1338
    -220 112 -485 197 -743 238 -96 15 -459 27 -535 18z m388 -971 c2 -224 0 -263
    -12 -263 -10 0 -16 17 -20 58 -17 163 -44 245 -106 316 -79 89 -160 106 -537
    113 l-293 5 0 -506 0 -506 387 -2 c360 -3 388 -4 391 -20 3 -17 -21 -18 -388
    -18 l-391 0 3 -452 c3 -440 4 -454 25 -500 24 -52 54 -72 126 -82 31 -5 47
    -12 47 -22 0 -12 -52 -14 -345 -14 -280 0 -345 3 -345 13 0 8 21 20 47 28 63
    19 83 49 93 140 9 83 4 1838 -6 1882 -7 33 -48 57 -99 57 -33 0 -46 15 -28 33
    3 4 331 6 727 5 l721 -3 3 -262z m437 -1002 c193 -37 295 -72 379 -130 146
    -101 215 -226 232 -421 14 -160 -46 -350 -137 -435 l-48 -45 -151 0 c-83 0
    -150 4 -150 9 0 5 11 31 25 58 42 81 58 179 58 363 0 237 -26 344 -110 447
    -71 88 -179 122 -394 126 l-124 2 -5 -500 -5 -500 -185 0 -185 0 -5 450 c-5
    463 -6 470 -47 507 -23 21 -123 48 -180 48 -42 0 -60 11 -48 31 10 15 997 6
    1080 -10z m-1795 -1171 c0 -5 -16 -10 -35 -10 -31 0 -35 -3 -35 -25 0 -21 5
    -25 30 -25 17 0 30 -4 30 -10 0 -5 -13 -10 -30 -10 -25 0 -30 -4 -30 -25 0
    -14 -4 -25 -10 -25 -6 0 -10 30 -10 70 l0 70 45 0 c25 0 45 -4 45 -10z m52
    -52 l3 -63 40 -6 c39 -6 39 -6 -12 -8 l-53 -1 0 70 c0 87 18 93 22 8z m203 37
    c50 -49 19 -115 -54 -115 -47 0 -63 17 -63 67 0 68 69 97 117 48z m145 5 c24
    -24 25 -38 4 -62 -14 -14 -14 -20 -4 -33 7 -9 10 -19 6 -23 -4 -4 -16 3 -26
    16 -23 28 -60 30 -60 2 0 -11 -4 -20 -10 -20 -6 0 -10 30 -10 70 l0 70 40 0
    c27 0 47 -7 60 -20z m140 10 c0 -5 -18 -10 -40 -10 -33 0 -40 -3 -40 -20 0
    -16 7 -20 35 -20 19 0 35 -4 35 -10 0 -5 -16 -10 -36 -10 -31 0 -35 -3 -32
    -22 2 -18 11 -24 43 -29 l40 -6 -47 -2 -48 -1 0 70 0 70 45 0 c25 0 45 -4 45
    -10z m112 -74 c17 -20 17 -20 18 32 0 28 5 52 10 52 6 0 10 -30 10 -71 0 -82
    -8 -85 -57 -20 l-33 43 0 -46 c0 -25 -4 -46 -10 -46 -6 0 -10 31 -10 73 l1 72
    27 -34 c15 -19 35 -44 44 -55z m172 78 c30 -11 16 -25 -18 -19 -30 6 -37 3
    -52 -19 -14 -22 -15 -32 -6 -52 14 -30 39 -41 62 -26 19 11 33 6 24 -9 -3 -5
    -23 -9 -44 -9 -67 0 -93 68 -45 115 24 25 49 31 79 19z m66 -64 c0 -40 -4 -70
    -10 -70 -6 0 -10 30 -10 70 0 40 4 70 10 70 6 0 10 -30 10 -70z m129 4 c30
    -64 34 -98 7 -61 -17 23 -75 23 -92 0 -12 -16 -13 -16 -14 -2 0 23 48 129 59
    129 5 0 23 -30 40 -66z m192 56 c22 -12 26 -59 7 -78 -7 -7 -27 -12 -45 -12
    -26 0 -33 -4 -33 -20 0 -11 -4 -20 -10 -20 -6 0 -10 30 -10 70 l0 70 36 0 c19
    0 44 -5 55 -10z m130 -56 c17 -36 27 -69 24 -72 -4 -4 -11 1 -16 11 -13 23
    -77 23 -95 0 -23 -30 -16 4 12 68 15 33 31 59 36 59 5 0 23 -30 39 -66z m140
    56 c21 -12 26 -59 8 -77 -8 -8 -8 -17 0 -32 15 -27 -4 -28 -21 -1 -7 11 -23
    20 -35 20 -16 0 -23 -6 -23 -20 0 -11 -4 -20 -10 -20 -11 0 -14 123 -3 133 10
    11 62 8 84 -3z m140 0 c21 -12 26 -59 8 -77 -8 -8 -8 -17 0 -32 15 -27 0 -27
    -24 -1 -24 27 -55 26 -55 -1 0 -11 -4 -17 -10 -14 -11 7 -14 118 -3 128 10 11
    62 8 84 -3z m140 -56 c16 -37 27 -70 23 -73 -3 -3 -10 2 -15 12 -7 11 -22 17
    -44 17 -22 0 -37 -6 -44 -17 -5 -10 -12 -15 -15 -13 -7 8 46 140 56 140 5 0
    22 -30 39 -66z m71 14 l25 -53 23 53 c12 28 26 52 31 52 13 0 12 -2 -18 -75
    -15 -36 -31 -65 -38 -65 -9 0 -65 113 -65 133 0 21 19 1 42 -45z m128 -18 c0
    -40 -4 -70 -10 -70 -6 0 -10 30 -10 70 0 40 4 70 10 70 6 0 10 -30 10 -70z
    m134 64 c27 -10 18 -27 -10 -20 -52 13 -81 -17 -68 -70 6 -25 49 -40 68 -25 7
    6 16 8 19 5 13 -14 -6 -24 -43 -24 -29 0 -43 6 -54 22 -44 62 18 139 88 112z
    m66 -64 c0 -40 -4 -70 -10 -70 -6 0 -10 30 -10 70 0 40 4 70 10 70 6 0 10 -30
    10 -70z m95 17 l40 -52 3 53 c5 77 22 63 22 -18 0 -84 -10 -88 -60 -24 l-35
    44 -3 -45 c-5 -72 -22 -52 -22 25 0 39 3 70 8 70 4 -1 25 -24 47 -53z m115
    -17 c0 -40 -4 -70 -10 -70 -6 0 -10 30 -10 70 0 40 4 70 10 70 6 0 10 -30 10
    -70z m-2407 -187 c-41 -5 -45 -32 -5 -34 l27 -2 -27 -4 c-42 -6 -38 -40 5 -46
    31 -4 31 -4 -5 -5 l-38 -2 0 50 0 50 38 -2 c36 -1 36 -1 5 -5z m167 -3 c11 -7
    8 -9 -14 -7 -40 3 -44 -18 -6 -32 44 -15 38 -46 -10 -47 l-35 -2 33 5 c38 5
    43 28 7 37 -30 8 -44 34 -24 47 18 11 30 11 49 -1z m150 3 c-22 -9 -28 -21
    -24 -53 2 -16 -1 -32 -6 -35 -6 -4 -10 12 -10 39 0 34 -4 46 -17 49 -10 3 2 5
    27 5 25 0 38 -2 30 -5z m133 0 c-41 -5 -45 -32 -5 -34 l27 -2 -27 -4 c-42 -6
    -38 -40 5 -46 31 -4 31 -4 -5 -5 l-38 -2 0 50 0 50 38 -2 c36 -1 36 -1 5 -5z
    m170 0 c-20 -4 -23 -11 -25 -51 l-1 -47 -6 44 c-4 31 -12 46 -26 52 -13 5 -4
    7 30 7 28 0 40 -3 28 -5z m94 -70 c-2 -16 -4 -3 -4 27 0 30 2 43 4 28 2 -16 2
    -40 0 -55z m173 66 c12 -8 10 -10 -9 -5 -31 7 -61 -10 -61 -33 0 -26 26 -44
    55 -39 13 3 22 1 19 -3 -8 -13 -58 -11 -72 3 -7 7 -12 24 -12 40 0 40 46 61
    80 37z m155 -39 c14 -27 21 -50 15 -50 -5 0 -10 5 -10 10 0 15 -70 12 -71 -2
    0 -10 -2 -10 -5 -1 -5 11 31 93 41 93 3 0 16 -22 30 -50z m212 -27 c-2 -16 -4
    -3 -4 27 0 30 2 43 4 28 2 -16 2 -40 0 -55z m173 -13 c0 -8 -15 3 -32 25 l-33
    39 -6 -39 c-6 -38 -6 -37 -8 15 l-1 55 40 -40 c21 -22 39 -47 40 -55z m147 78
    c-9 -7 -18 -31 -20 -53 l-4 -40 -1 47 c-2 35 -6 48 -19 51 -10 3 0 5 21 6 34
    1 37 -1 23 -11z m141 5 c-16 -2 -28 -11 -28 -19 0 -8 11 -15 28 -15 l27 -2
    -27 -4 c-19 -3 -28 -10 -28 -23 0 -13 9 -20 28 -23 25 -4 25 -4 -5 -6 l-33 -1
    0 50 0 50 33 -1 c30 -2 30 -2 5 -6z m188 -5 c5 -8 2 -9 -10 -5 -29 11 -58 -11
    -54 -41 2 -21 9 -28 31 -30 22 -3 27 1 27 19 0 17 3 20 11 12 19 -19 2 -43
    -30 -43 -57 0 -77 70 -27 90 30 12 44 12 52 -2z m168 -4 c12 -12 14 -20 5 -35
    -6 -12 -8 -28 -5 -37 5 -15 4 -15 -8 1 -7 9 -20 17 -29 17 -8 0 -18 -8 -20
    -17 -3 -10 -5 6 -6 35 -1 49 1 52 23 52 14 0 32 -7 40 -16z m286 -34 c0 -35 3
    -39 28 -43 22 -3 20 -4 -10 -6 l-38 -1 0 51 c0 31 4 48 10 44 6 -3 10 -24 10
    -45z m-122 -5 c12 -25 17 -45 12 -45 -6 0 -10 5 -10 10 0 14 -54 12 -69 -2 -7
    -7 -2 8 10 35 13 26 26 47 29 47 3 0 16 -20 28 -45z m-828 -345 c7 -234 17
    -252 155 -278 33 -6 95 -14 138 -18 53 -4 77 -10 77 -19 0 -10 -68 -14 -312
    -19 -378 -9 -713 -1 -713 17 0 7 24 15 60 20 33 5 85 16 115 25 49 15 58 22
    78 62 20 41 22 58 22 210 0 92 2 169 4 171 2 2 87 4 188 4 l183 0 5 -175z"/>
    <path d="M1507 1742 c-24 -27 -21 -59 8 -78 51 -33 104 21 71 71 -20 30 -56
    33 -79 7z"/>
    <path d="M1660 1731 c0 -29 3 -31 36 -31 33 0 35 2 32 28 -2 22 -8 28 -35 30
    -31 3 -33 1 -33 -27z"/>
    <path d="M2302 1715 c-11 -23 -10 -25 13 -25 26 0 29 7 19 34 -9 23 -19 20
    -32 -9z"/>
    <path d="M2480 1729 c0 -28 2 -30 32 -27 57 5 48 57 -9 58 -19 0 -23 -5 -23
    -31z"/>
    <path d="M2630 1727 c-15 -31 -10 -40 18 -35 19 3 19 6 7 33 l-12 30 -13 -28z"/>
    <path d="M2750 1730 c0 -29 2 -31 33 -28 27 2 32 7 32 28 0 21 -5 26 -32 28
    -31 3 -33 1 -33 -28z"/>
    <path d="M2890 1729 c0 -28 2 -30 32 -27 57 5 48 57 -9 58 -19 0 -23 -5 -23
    -31z"/>
    <path d="M3051 1726 c-13 -33 -10 -39 17 -34 17 3 17 6 6 33 l-12 30 -11 -29z"/>
    <path d="M2306 1494 c-9 -25 -7 -34 8 -34 22 0 26 13 11 33 -11 16 -13 16 -19
    1z"/>
    <path d="M3320 1495 c0 -22 4 -26 23 -23 14 2 22 10 22 23 0 13 -8 21 -22 23
    -19 3 -23 -1 -23 -23z"/>
    <path d="M3497 1485 c-7 -16 8 -29 23 -20 10 6 2 35 -10 35 -4 0 -10 -7 -13
    -15z"/>
    </g>
</symbol>

<!--Logo instagram-->
<symbol id="logoInsta"  viewBox="0 0 50 50">
   <path d="M 16 3 C 8.8324839 3 3 8.8324839 3 16 L 3 34 C 3 41.167516 8.8324839 47 16 47 L 34 47 C 41.167516 47 47 41.167516 47 34 L 47 16 C 47 8.8324839 41.167516 3 34 3 L 16 3 z M 16 5 L 34 5 C 40.086484 5 45 9.9135161 45 16 L 45 34 C 45 40.086484 40.086484 45 34 45 L 16 45 C 9.9135161 45 5 40.086484 5 34 L 5 16 C 5 9.9135161 9.9135161 5 16 5 z M 37 11 A 2 2 0 0 0 35 13 A 2 2 0 0 0 37 15 A 2 2 0 0 0 39 13 A 2 2 0 0 0 37 11 z M 25 14 C 18.936712 14 14 18.936712 14 25 C 14 31.063288 18.936712 36 25 36 C 31.063288 36 36 31.063288 36 25 C 36 18.936712 31.063288 14 25 14 z M 25 16 C 29.982407 16 34 20.017593 34 25 C 34 29.982407 29.982407 34 25 34 C 20.017593 34 16 29.982407 16 25 C 16 20.017593 20.017593 16 25 16 z"></path>
</symbol>

<!--Logo whatsapp-->
<symbol id="logoWhats"  viewBox="0 0 50 50">
    <path d="M 25 2 C 12.309534 2 2 12.309534 2 25 C 2 29.079097 3.1186875 32.88588 4.984375 36.208984 L 2.0371094 46.730469 A 1.0001 1.0001 0 0 0 3.2402344 47.970703 L 14.210938 45.251953 C 17.434629 46.972929 21.092591 48 25 48 C 37.690466 48 48 37.690466 48 25 C 48 12.309534 37.690466 2 25 2 z M 25 4 C 36.609534 4 46 13.390466 46 25 C 46 36.609534 36.609534 46 25 46 C 21.278025 46 17.792121 45.029635 14.761719 43.333984 A 1.0001 1.0001 0 0 0 14.033203 43.236328 L 4.4257812 45.617188 L 7.0019531 36.425781 A 1.0001 1.0001 0 0 0 6.9023438 35.646484 C 5.0606869 32.523592 4 28.890107 4 25 C 4 13.390466 13.390466 4 25 4 z M 16.642578 13 C 16.001539 13 15.086045 13.23849 14.333984 14.048828 C 13.882268 14.535548 12 16.369511 12 19.59375 C 12 22.955271 14.331391 25.855848 14.613281 26.228516 L 14.615234 26.228516 L 14.615234 26.230469 C 14.588494 26.195329 14.973031 26.752191 15.486328 27.419922 C 15.999626 28.087653 16.717405 28.96464 17.619141 29.914062 C 19.422612 31.812909 21.958282 34.007419 25.105469 35.349609 C 26.554789 35.966779 27.698179 36.339417 28.564453 36.611328 C 30.169845 37.115426 31.632073 37.038799 32.730469 36.876953 C 33.55263 36.755876 34.456878 36.361114 35.351562 35.794922 C 36.246248 35.22873 37.12309 34.524722 37.509766 33.455078 C 37.786772 32.688244 37.927591 31.979598 37.978516 31.396484 C 38.003976 31.104927 38.007211 30.847602 37.988281 30.609375 C 37.969311 30.371148 37.989581 30.188664 37.767578 29.824219 C 37.302009 29.059804 36.774753 29.039853 36.224609 28.767578 C 35.918939 28.616297 35.048661 28.191329 34.175781 27.775391 C 33.303883 27.35992 32.54892 26.991953 32.083984 26.826172 C 31.790239 26.720488 31.431556 26.568352 30.914062 26.626953 C 30.396569 26.685553 29.88546 27.058933 29.587891 27.5 C 29.305837 27.918069 28.170387 29.258349 27.824219 29.652344 C 27.819619 29.649544 27.849659 29.663383 27.712891 29.595703 C 27.284761 29.383815 26.761157 29.203652 25.986328 28.794922 C 25.2115 28.386192 24.242255 27.782635 23.181641 26.847656 L 23.181641 26.845703 C 21.603029 25.455949 20.497272 23.711106 20.148438 23.125 C 20.171937 23.09704 20.145643 23.130901 20.195312 23.082031 L 20.197266 23.080078 C 20.553781 22.728924 20.869739 22.309521 21.136719 22.001953 C 21.515257 21.565866 21.68231 21.181437 21.863281 20.822266 C 22.223954 20.10644 22.02313 19.318742 21.814453 18.904297 L 21.814453 18.902344 C 21.828863 18.931014 21.701572 18.650157 21.564453 18.326172 C 21.426943 18.001263 21.251663 17.580039 21.064453 17.130859 C 20.690033 16.232501 20.272027 15.224912 20.023438 14.634766 L 20.023438 14.632812 C 19.730591 13.937684 19.334395 13.436908 18.816406 13.195312 C 18.298417 12.953717 17.840778 13.022402 17.822266 13.021484 L 17.820312 13.021484 C 17.450668 13.004432 17.045038 13 16.642578 13 z M 16.642578 15 C 17.028118 15 17.408214 15.004701 17.726562 15.019531 C 18.054056 15.035851 18.033687 15.037192 17.970703 15.007812 C 17.906713 14.977972 17.993533 14.968282 18.179688 15.410156 C 18.423098 15.98801 18.84317 16.999249 19.21875 17.900391 C 19.40654 18.350961 19.582292 18.773816 19.722656 19.105469 C 19.863021 19.437122 19.939077 19.622295 20.027344 19.798828 L 20.027344 19.800781 L 20.029297 19.802734 C 20.115837 19.973483 20.108185 19.864164 20.078125 19.923828 C 19.867096 20.342656 19.838461 20.445493 19.625 20.691406 C 19.29998 21.065838 18.968453 21.483404 18.792969 21.65625 C 18.639439 21.80707 18.36242 22.042032 18.189453 22.501953 C 18.016221 22.962578 18.097073 23.59457 18.375 24.066406 C 18.745032 24.6946 19.964406 26.679307 21.859375 28.347656 C 23.05276 29.399678 24.164563 30.095933 25.052734 30.564453 C 25.940906 31.032973 26.664301 31.306607 26.826172 31.386719 C 27.210549 31.576953 27.630655 31.72467 28.119141 31.666016 C 28.607627 31.607366 29.02878 31.310979 29.296875 31.007812 L 29.298828 31.005859 C 29.655629 30.601347 30.715848 29.390728 31.224609 28.644531 C 31.246169 28.652131 31.239109 28.646231 31.408203 28.707031 L 31.408203 28.708984 L 31.410156 28.708984 C 31.487356 28.736474 32.454286 29.169267 33.316406 29.580078 C 34.178526 29.990889 35.053561 30.417875 35.337891 30.558594 C 35.748225 30.761674 35.942113 30.893881 35.992188 30.894531 C 35.995572 30.982516 35.998992 31.07786 35.986328 31.222656 C 35.951258 31.624292 35.8439 32.180225 35.628906 32.775391 C 35.523582 33.066746 34.975018 33.667661 34.283203 34.105469 C 33.591388 34.543277 32.749338 34.852514 32.4375 34.898438 C 31.499896 35.036591 30.386672 35.087027 29.164062 34.703125 C 28.316336 34.437036 27.259305 34.092596 25.890625 33.509766 C 23.114812 32.325956 20.755591 30.311513 19.070312 28.537109 C 18.227674 27.649908 17.552562 26.824019 17.072266 26.199219 C 16.592866 25.575584 16.383528 25.251054 16.208984 25.021484 L 16.207031 25.019531 C 15.897202 24.609805 14 21.970851 14 19.59375 C 14 17.077989 15.168497 16.091436 15.800781 15.410156 C 16.132721 15.052495 16.495617 15 16.642578 15 z"></path>
</symbol>

<!--Logo cerrar menu-->  
<symbol id="logoClose"  viewBox="0 0 24 24">
    <g transform="translate(12,12)">
        <path class="hlJH0" d="M-9 -5 L9 -5" fill="none" stroke-width="2"></path>
        <path class="HBu6N" d="M-9 0 L9 0" fill="none" stroke-width="2"></path>
        <path class="cLAGQe" d="M-9 5 L9 5" fill="none" stroke-width="2"></path>
    </g>
 </symbol>
</svg>
